# xmcd CD database file
#
# Track frame offsets:
#	150
#	29538
#	46511
#	61409
#	82278
#	106983
#	124334
#	145956
#	160632
#	177097
#	193934
#	209347
#	225745
#	261373
#
# Disc length: 3737 seconds
#
# Revision: 0
# Processed by: cddbd v1.4PL0 Copyright (c) Steve Scherf et al.
# Submitted via: Feurio! 1.65 - http://www.feurio.com
#
DISCID=c90e970e
DTITLE=Eric Clapton - Unplugged "92"
DYEAR=1900
DGENRE=
TTITLE0=Running On Faith
TTITLE1=Before You Accuse Me
TTITLE2=Hey Hey
TTITLE3=Tears in Heaven
TTITLE4=Lonely Stranger
TTITLE5=Nobody Know's You
TTITLE6=Layla
TTITLE7=Signe
TTITLE8=Walking Blues
TTITLE9=Alberta
TTITLE10=San Francisco Bay Blues
TTITLE11=Malted Milk
TTITLE12=Old Love
TTITLE13=Rollin' And Tumblin'
EXTD=
EXTT0=
EXTT1=
EXTT2=
EXTT3=
EXTT4=
EXTT5=
EXTT6=
EXTT7=
EXTT8=
EXTT9=
EXTT10=
EXTT11=
EXTT12=
EXTT13=
PLAYORDER=
